<?xml version="1.0" encoding="UTF-8"?>
<svg version="1.1" xmlns="http://www.w3.org/2000/svg" width="500" height="380">
<path d="M0 0 C69.09659135 -5.0181882 69.09659135 -5.0181882 85.46484375 8.68359375 C95.26183948 17.58198748 103.62402597 28.03637389 111 39 C110.04994368 40.28327123 109.09759572 41.56484608 108.14428711 42.84570312 C107.6141954 43.55956177 107.0841037 44.27342041 106.53794861 45.00891113 C104.71243142 47.37229761 102.72205689 49.43950536 100.5625 51.5 C97.23250117 54.75268542 94.12347045 58.08349432 91.09765625 61.6171875 C87.63624393 65.54914563 84.03438211 69.35219018 80.44238281 73.16479492 C79.62592285 74.03648315 79.62592285 74.03648315 78.79296875 74.92578125 C78.3033667 75.44567627 77.81376465 75.96557129 77.30932617 76.5012207 C75.78863712 78.1765739 75.78863712 78.1765739 74 81 C73.34 81 72.68 81 72 81 C71.74114014 81.58104492 71.48228027 82.16208984 71.21557617 82.76074219 C69.90515824 85.17471152 68.45153118 86.84997121 66.55078125 88.828125 C65.86693359 89.54613281 65.18308594 90.26414062 64.47851562 91.00390625 C63.76373047 91.74511719 63.04894531 92.48632812 62.3125 93.25 C57.64436244 98.12147627 53.05303425 103.02349239 48.63647461 108.125 C45.71830597 111.46850815 42.68345378 114.70463598 39.65625 117.94921875 C37.02417554 120.75476461 37.02417554 120.75476461 35 124 C23.45 124 11.9 124 0 124 C0 83.08 0 42.16 0 0 Z M26 23 C26 26.63 26 30.26 26 34 C22.37 34 18.74 34 15 34 C15 36.97 15 39.94 15 43 C18.63 43 22.26 43 26 43 C26 46.63 26 50.26 26 54 C28.64 54 31.28 54 34 54 C34 50.37 34 46.74 34 43 C37.63 43 41.26 43 45 43 C45 40.03 45 37.06 45 34 C41.37 34 37.74 34 34 34 C34 30.37 34 26.74 34 23 C31.36 23 28.72 23 26 23 Z " fill="#00789D" transform="translate(43,70)"/>
<path d="M0 0 C2.625 2.25 2.625 2.25 5 5 C5.49371094 5.55300781 5.98742187 6.10601562 6.49609375 6.67578125 C12.41672449 13.80711454 15.30591064 22.80331594 16 32 C16.0515625 32.63679688 16.103125 33.27359375 16.15625 33.9296875 C16.68711177 46.0067928 13.38136723 57.83907515 5.75 67.1875 C-0.71640103 74.19047473 -7.5937171 77.33058597 -17.03125 78.18359375 C-26.32445056 78.49705488 -33.02767191 76.15303774 -40 70 C-40.66 69.34 -41.32 68.68 -42 68 C-42.33 90.11 -42.66 112.22 -43 135 C-50.26 135 -57.52 135 -65 135 C-65 89.13 -65 43.26 -65 -4 C-58.07 -4 -51.14 -4 -44 -4 C-43.67 -1.36 -43.34 1.28 -43 4 C-42.53851563 3.52949219 -42.07703125 3.05898437 -41.6015625 2.57421875 C-29.7196019 -8.76765273 -13.56677171 -8.40964035 0 0 Z M-35.921875 14.70703125 C-43.24482517 22.62005385 -43.54476559 30.25835237 -43.30859375 40.55859375 C-42.99339977 46.77223104 -41.70519544 51.92884974 -37.52734375 56.671875 C-32.99980588 60.48228513 -27.80290961 61.31771164 -22 61 C-16.76882691 59.45637515 -13.28034582 57.37379443 -10 53 C-6.02959297 43.27330005 -5.69000606 32.92998181 -9 23 C-11.20987196 17.8153004 -13.89563704 14.55218148 -19 12 C-24.99582897 10.33924085 -31.04839639 10.37835208 -35.921875 14.70703125 Z " fill="#00789D" transform="translate(174,245)"/>
<path d="M0 0 C1.5631897 0.00785522 1.5631897 0.00785522 3.15795898 0.01586914 C4.28266602 0.0190918 5.40737305 0.02231445 6.56616211 0.02563477 C7.75016602 0.03401367 8.93416992 0.04239258 10.15405273 0.05102539 C11.34192383 0.05553711 12.52979492 0.06004883 13.75366211 0.06469727 C16.69967499 0.07652864 19.64558954 0.09301252 22.59155273 0.11352539 C26.23857326 8.67127569 29.71367815 17.24444692 32.71655273 26.05102539 C35.81705404 35.11333749 39.21073827 44.05265856 42.65405273 52.98852539 C47.67008403 66.01495663 52.57793827 79.07801442 57.40405273 92.17602539 C57.71649933 93.02219421 58.02894592 93.86836304 58.3508606 94.74017334 C59.23123058 97.12562625 60.10917357 99.5119551 60.98608398 101.89868164 C61.25104675 102.61678513 61.51600952 103.33488861 61.78900146 104.07475281 C63.59155273 108.99779138 63.59155273 108.99779138 63.59155273 110.11352539 C55.01155273 110.11352539 46.43155273 110.11352539 37.59155273 110.11352539 C36.41967773 106.79321289 35.24780273 103.47290039 34.07592773 100.15258789 C32.34287649 95.43686424 30.45745424 90.77827916 28.59155273 86.11352539 C15.72155273 86.11352539 2.85155273 86.11352539 -10.40844727 86.11352539 C-11.39844727 89.41352539 -12.38844727 92.71352539 -13.40844727 96.11352539 C-15.01824149 100.80233449 -16.71779756 105.45281538 -18.40844727 110.11352539 C-26.65844727 110.11352539 -34.90844727 110.11352539 -43.40844727 110.11352539 C-42.28364177 103.36469241 -42.28364177 103.36469241 -40.98828125 100.07568359 C-40.69905792 99.33242325 -40.40983459 98.5891629 -40.11184692 97.82337952 C-39.79593597 97.02838547 -39.48002502 96.23339142 -39.15454102 95.41430664 C-38.82187225 94.56247299 -38.48920349 93.71063934 -38.14645386 92.83299255 C-37.42694251 90.99137897 -36.70499213 89.15071682 -35.98086548 87.31091309 C-34.03971123 82.37662624 -32.11848579 77.43460224 -30.19750977 72.49243164 C-29.80124893 71.47369965 -29.4049881 70.45496765 -28.99671936 69.40536499 C-24.80211966 58.59623487 -20.74811422 47.7359489 -16.72094727 36.86352539 C-16.39391815 35.98080963 -16.06688904 35.09809387 -15.72994995 34.18862915 C-14.78518759 31.63768424 -13.84089854 29.08656459 -12.89672852 26.53540039 C-12.01989437 24.16711839 -11.14301228 21.79885424 -10.26593018 19.43066406 C-9.68570521 17.86274745 -9.10625935 16.29454233 -8.52752686 14.72607422 C-7.69224343 12.46363134 -6.85348887 10.20250436 -6.01391602 7.94165039 C-5.63931999 6.92322052 -5.63931999 6.92322052 -5.25715637 5.88421631 C-3.11995195 0.14706312 -3.11995195 0.14706312 0 0 Z M9.59155273 29.11352539 C9.26880371 29.99613037 8.94605469 30.87873535 8.61352539 31.78808594 C7.4101846 35.07769339 6.20617161 38.36705321 5.00170898 41.65625 C4.48158443 43.07705044 3.96172421 44.49794767 3.44213867 45.91894531 C2.69316785 47.96713658 1.9432319 50.01497229 1.19311523 52.06274414 C0.51756592 53.90872192 0.51756592 53.90872192 -0.17163086 55.79199219 C-0.93135525 57.83227057 -1.7241097 59.86105275 -2.57104492 61.86669922 C-3.58306576 64.18240838 -3.58306576 64.18240838 -3.40844727 67.11352539 C5.17155273 67.11352539 13.75155273 67.11352539 22.59155273 67.11352539 C21.31796774 61.38239294 20.11539626 56.34194984 18.20874023 50.89086914 C17.8800444 49.94444298 17.8800444 49.94444298 17.54470825 48.97889709 C16.8566826 47.00126487 16.16177311 45.02613827 15.46655273 43.05102539 C14.99343454 41.69506669 14.52077467 40.33894798 14.04858398 38.98266602 C12.90151596 35.69109178 11.7482693 32.40172324 10.59155273 29.11352539 C10.26155273 29.11352539 9.93155273 29.11352539 9.59155273 29.11352539 Z " fill="#00789D" transform="translate(43.408447265625,210.886474609375)"/>
<path d="M0 0 C0.66 0 1.32 0 2 0 C2.01417969 0.61746094 2.02835938 1.23492188 2.04296875 1.87109375 C2.5213801 10.36612768 5.19283695 16.57822773 11.3125 22.5625 C22.02994833 31.25778827 35.61731462 35.64949222 48.7890625 38.94921875 C62.93369153 42.50974496 76.59656741 48.38267222 85 61 C90.25615223 70.8855546 92.94230911 80.73131263 90.31640625 91.91015625 C87.90678428 99.01904099 84.33973772 105.66026228 79 111 C87.58 111 96.16 111 105 111 C102.74988268 116.62529329 102.74988268 116.62529329 100.90625 119.4453125 C100.51566406 120.04730469 100.12507813 120.64929688 99.72265625 121.26953125 C99.11744141 122.18798828 99.11744141 122.18798828 98.5 123.125 C97.89478516 124.05505859 97.89478516 124.05505859 97.27734375 125.00390625 C95.53374251 127.67972994 93.77158238 130.34262643 92 133 C91.63155492 135.8086043 91.63155492 135.8086043 91.5859375 138.98046875 C91.55032715 140.02871826 91.5147168 141.07696777 91.47802734 142.15698242 C91.42702881 144.15208862 91.42702881 144.15208862 91.375 146.1875 C91.189375 152.5296875 91.189375 152.5296875 91 159 C82.42 159 73.84 159 65 159 C65.12375 155.101875 65.2475 151.20375 65.375 147.1875 C65.32640799 133.4238127 60.46451319 125.44848612 51.15576172 115.67211914 C50.77436035 115.12031982 50.39295898 114.56852051 50 114 C50.495 112.515 50.495 112.515 51 111 C59.25 111.33 67.5 111.66 76 112 C72.67162473 101.91831835 72.67162473 101.91831835 65 96 C58.72771406 93.13976404 52.25519651 91.82807492 45.5 90.625 C32.95791158 88.2580828 23.20214413 82.77559467 15.8125 72.3125 C11.41724449 65.48850866 8.76936265 59.17321092 9 51 C11.73293046 51.88635583 14.44921457 52.77603048 17.11157227 53.85864258 C26.78908182 57.69596039 36.93830187 59.43525051 47.1171875 61.42456055 C64.70850981 64.88767871 64.70850981 64.88767871 72 70 C72.9075 70.556875 73.815 71.11375 74.75 71.6875 C79.72825175 76.80403652 82.60163157 83.50553728 83.0859375 90.6171875 C82.92191323 95.16513323 82.00160414 99.5714197 81 104 C84.12373373 92.67646523 85.79363449 82.4542281 79.7109375 71.7265625 C70.32061934 58.62028957 56.95184504 53.61514881 41.5 50.875 C7.76780799 44.68073599 7.76780799 44.68073599 0 34 C-3.51192178 23.96593778 -2.87872183 11.36628071 -1 1 C-0.67 0.67 -0.34 0.34 0 0 Z " fill="#F9BA00" transform="translate(127,0)"/>
<path d="M0 0 C0.54914063 0.31324219 1.09828125 0.62648437 1.6640625 0.94921875 C10.84010915 6.70951235 15.13851526 16.14479844 17.55078125 26.32421875 C19.73098696 39.31066146 17.75972786 51.8390344 10.4375 62.875 C4.14999135 70.92536154 -4.26771053 75.70532895 -14.25 77.625 C-27.24558724 78.92455872 -39.09706407 77.74769235 -50 70 C-57.66250225 63.04460786 -63.18121378 54.23444519 -64.22314453 43.75585938 C-64.89851921 29.42972983 -63.9637131 17.45223289 -54.203125 6.19140625 C-40.15659197 -7.78041118 -17.00430728 -10.28167417 0 0 Z M-35.75 16.25 C-41.57942814 23.37485662 -42.1547845 30.97412901 -42 40 C-41.06652928 47.17605618 -39.56506263 53.17694572 -34 58 C-28.97290792 61.02972067 -24.14446827 61.48276942 -18.39453125 60.6171875 C-13.36695031 59.32133466 -10.35439025 57.27875155 -7.68359375 52.78515625 C-3.78102565 43.7426204 -3.51040912 32.45652394 -6 22.9375 C-8.02765396 18.02397576 -11.41232701 14.61931329 -16 12 C-23.63680473 9.68509357 -29.57539015 11.19804649 -35.75 16.25 Z " fill="#00789D" transform="translate(408,245)"/>
<path d="M0 0 C9.10008547 7.10180446 12.92371001 15.76987919 15.0703125 27.078125 C16.39333672 38.66599227 14.32928116 50.80020502 7.703125 60.52734375 C1.43614287 68.23608058 -7.75516372 74.36284405 -17.77734375 75.8671875 C-19.63359375 75.898125 -19.63359375 75.898125 -21.52734375 75.9296875 C-22.30335938 75.96578125 -23.079375 76.001875 -23.87890625 76.0390625 C-33.21748954 76.32818273 -41.47153029 74.73283988 -49.52734375 69.9296875 C-50.12289062 69.59324219 -50.7184375 69.25679688 -51.33203125 68.91015625 C-60.19941239 63.33355878 -64.38922902 54.38568919 -66.87109375 44.51171875 C-69.20064872 31.79623123 -67.40083965 19.19481457 -60.3359375 8.25390625 C-45.68024712 -10.58008031 -19.34141186 -13.41375614 0 0 Z M-37.46484375 12.5625 C-44.54197201 20.08194878 -44.94839975 27.47451548 -44.77734375 37.44921875 C-44.32456943 43.75268628 -43.14705498 48.8150645 -39.27734375 53.8671875 C-33.50280112 58.19809447 -28.96037168 59.50843124 -21.890625 58.5 C-17.09416186 57.34250641 -14.38326722 54.95204053 -11.27734375 51.2421875 C-6.98233755 43.11235433 -6.31606223 33.60813536 -8.33984375 24.6796875 C-10.26751946 18.59229054 -12.01891305 14.43505249 -17.52734375 10.9296875 C-24.39923462 8.51849772 -31.4963673 7.5326146 -37.46484375 12.5625 Z " fill="#00789D" transform="translate(260.52734375,247.0703125)"/>
<path d="M0 0 C0.99 0.33 1.98 0.66 3 1 C2.67 18.49 2.34 35.98 2 54 C-1.465 54.495 -1.465 54.495 -5 55 C-5.30292969 56.24136719 -5.60585937 57.48273438 -5.91796875 58.76171875 C-6.34023863 60.40387938 -6.76346643 62.0457939 -7.1875 63.6875 C-7.48237305 64.91243164 -7.48237305 64.91243164 -7.78320312 66.16210938 C-9.13322491 71.29219216 -10.35458841 74.98725959 -15 78 C-17.44328618 78.26004241 -19.74370326 78.17091076 -22.19628906 78.03100586 C-28.90209091 77.64937 -34.87986375 77.47802121 -40.17578125 82.03515625 C-43.25013378 85.1783984 -45.9569079 88.58794124 -48.57763672 92.11425781 C-50.5000413 94.66294524 -52.63807431 96.97769643 -54.8125 99.3125 C-55.5034375 100.0859375 -56.194375 100.859375 -56.90625 101.65625 C-59.90473335 105.01276121 -62.93250087 108.34273775 -65.95703125 111.67578125 C-67.41106286 113.32998547 -68.79850278 115.04374678 -70.13671875 116.79296875 C-70.75160156 117.52128906 -71.36648437 118.24960938 -72 119 C-72.66 119 -73.32 119 -74 119 C-76.6004362 84.66890791 -76.6004362 84.66890791 -71.046875 76.40234375 C-68.04599594 72.97434813 -64.6163021 70.17298093 -60.94482422 67.48974609 C-57.99998175 65.2339805 -55.66963643 62.54416264 -53.25 59.75 C-47.70833333 53.68055556 -47.70833333 53.68055556 -45.125 50.875 C-35.9245683 40.88903059 -35.9245683 40.88903059 -27.1875 30.5 C-26.465625 29.675 -25.74375 28.85 -25 28 C-24.34 28 -23.68 28 -23 28 C-22.73735352 27.41444336 -22.47470703 26.82888672 -22.20410156 26.22558594 C-20.94072978 23.89044864 -19.5778592 22.29354338 -17.734375 20.390625 C-17.09113281 19.71773437 -16.44789063 19.04484375 -15.78515625 18.3515625 C-14.77775391 17.31128906 -14.77775391 17.31128906 -13.75 16.25 C-8.7528349 11.08593548 -4.17301235 5.85789058 0 0 Z M-16 28 C-14.68 29.32 -13.36 30.64 -12 32 C-11.01 30.68 -10.02 29.36 -9 28 C-11.31 28 -13.62 28 -16 28 Z " fill="#00799E" transform="translate(154,116)"/>
<path d="M0 0 C0.66 0 1.32 0 2 0 C2.495 3.465 2.495 3.465 3 7 C12.9 7 22.8 7 33 7 C33 17.23 33 27.46 33 38 C23.43 38 13.86 38 4 38 C3.34 39.32 2.68 40.64 2 42 C0.52137145 43.72460079 -1.00563763 45.40818146 -2.5625 47.0625 C-5.9953483 50.75363459 -9.27938092 54.50410259 -12.4375 58.4375 C-16.20907428 63.11667237 -20.17743368 67.55657214 -24.28295898 71.94116211 C-26.99615551 74.8200641 -26.99615551 74.8200641 -29.11108398 78.13989258 C-31.62895831 80.61936582 -33.7077102 80.45454692 -37.1335907 80.45318604 C-37.94931046 80.43254089 -38.76503021 80.41189575 -39.60546875 80.390625 C-40.44467361 80.38496521 -41.28387848 80.37930542 -42.14851379 80.37347412 C-44.82875633 80.35108406 -47.50766163 80.30088453 -50.1875 80.25 C-52.00453798 80.22993832 -53.82159692 80.21168697 -55.63867188 80.1953125 C-60.09296312 80.15121086 -64.54625485 80.08216659 -69 80 C-67.49846316 76.83979349 -66.00106541 74.83533997 -63.4375 72.4375 C-60.31935544 69.40317653 -57.52664587 66.27519381 -54.8125 62.875 C-50.14545684 57.05939509 -45.10515614 51.65692132 -40.0078125 46.22265625 C-37.1577443 43.18205669 -34.39511189 40.07651576 -31.671875 36.921875 C-29.64241927 34.58894926 -27.572353 32.29488755 -25.5 30 C-22.23787207 26.38520959 -19.01340971 22.74218095 -15.8203125 19.06640625 C-13.70212607 16.66185556 -11.5369237 14.30277296 -9.375 11.9375 C-6.73024143 9.02240835 -4.28641983 6.12231656 -2.0625 2.875 C-1.381875 1.92625 -0.70125 0.9775 0 0 Z " fill="#00789D" transform="translate(187,154)"/>
<path d="M0 0 C7.59 0 15.18 0 23 0 C23 36.3 23 72.6 23 110 C15.41 110 7.82 110 0 110 C0 73.7 0 37.4 0 0 Z " fill="#00789D" transform="translate(316,211)"/>
<path d="M0 0 C7.26 0 14.52 0 22 0 C22 36.3 22 72.6 22 110 C14.74 110 7.48 110 0 110 C0 73.7 0 37.4 0 0 Z " fill="#00789D" transform="translate(281,211)"/>
<path d="M0 0 C2.73293046 0.88635583 5.44921457 1.77603048 8.11157227 2.85864258 C17.78908182 6.69596039 27.93830187 8.43525051 38.1171875 10.42456055 C55.70850981 13.88767871 55.70850981 13.88767871 63 19 C63.9075 19.556875 64.815 20.11375 65.75 20.6875 C70.67821353 25.75260835 73.60414425 32.43497906 74.0859375 39.484375 C73.90708191 44.719966 72.96136827 49.85946058 72 55 C70.02 55.33 68.04 55.66 66 56 C65.505 55.13375 65.01 54.2675 64.5 53.375 C58.01197785 43.95403633 48.55256264 42.2281991 38 40 C22.94331817 36.73511397 13.21092639 31.24657693 4.76953125 18.140625 C1.45771321 12.2626963 -0.19027567 6.74289409 0 0 Z " fill="#F9BA00" transform="translate(136,51)"/>
<path d="M0 0 C18.15 0 36.3 0 55 0 C52.74988268 5.62529329 52.74988268 5.62529329 50.90625 8.4453125 C50.51566406 9.04730469 50.12507813 9.64929688 49.72265625 10.26953125 C49.31917969 10.88183594 48.91570312 11.49414062 48.5 12.125 C48.09652344 12.74503906 47.69304687 13.36507812 47.27734375 14.00390625 C45.53374251 16.67972994 43.77158238 19.34262643 42 22 C41.63155492 24.8086043 41.63155492 24.8086043 41.5859375 27.98046875 C41.55032715 29.02871826 41.5147168 30.07696777 41.47802734 31.15698242 C41.44402832 32.48705322 41.4100293 33.81712402 41.375 35.1875 C41.189375 41.5296875 41.189375 41.5296875 41 48 C32.42 48 23.84 48 15 48 C15.12375 44.101875 15.2475 40.20375 15.375 36.1875 C15.3187538 22.4616956 10.51146602 14.46618487 1.26928711 4.67211914 C0 3 0 3 0 0 Z " fill="#00789D" transform="translate(177,111)"/>
<path d="M0 0 C8.58 0 17.16 0 26 0 C27.94320279 29.61584991 27.94320279 29.61584991 23.328125 35.28515625 C20.54339794 37.81390327 17.47366901 39.54746876 14 41 C8.59224253 38.40099612 3.75851095 35.7907659 0 31 C-1.22707267 25.60620892 -0.95501241 20.48816861 -0.625 15 C-0.57476283 13.54312211 -0.52914873 12.08607707 -0.48828125 10.62890625 C-0.38729988 7.07840114 -0.19207971 3.55134037 0 0 Z " fill="#00789D" transform="translate(192,194)"/>
<path d="M0 0 C1.98 0 3.96 0 6 0 C6 5.94 6 11.88 6 18 C12.93 18 19.86 18 27 18 C27 12.06 27 6.12 27 0 C28.98 0 30.96 0 33 0 C33 14.52 33 29.04 33 44 C31.02 44 29.04 44 27 44 C27 37.4 27 30.8 27 24 C20.07 24 13.14 24 6 24 C6 30.6 6 37.2 6 44 C4.02 44 2.04 44 0 44 C0 29.48 0 14.96 0 0 Z " fill="#FABA00" transform="translate(253,334)"/>
<path d="M0 0 C1.98 0 3.96 0 6 0 C6.33 4.95 6.66 9.9 7 15 C7.94875 14.46375 8.8975 13.9275 9.875 13.375 C14.08173766 11.56352725 17.3747288 12.18686338 21.765625 13.06640625 C24.53023148 14.22154777 25.46615156 15.45778824 27 18 C28.0592918 21.17787541 28.11458939 23.42588943 28.09765625 26.76171875 C28.09443359 27.87998047 28.09121094 28.99824219 28.08789062 30.15039062 C28.07951172 31.31763672 28.07113281 32.48488281 28.0625 33.6875 C28.05798828 34.86634766 28.05347656 36.04519531 28.04882812 37.25976562 C28.03703273 40.17322789 28.0205727 43.08658863 28 46 C26.02 46 24.04 46 22 46 C21.97494385 45.25314941 21.9498877 44.50629883 21.92407227 43.73681641 C21.80831787 40.36602733 21.68549872 36.99553217 21.5625 33.625 C21.52318359 32.449375 21.48386719 31.27375 21.44335938 30.0625 C21.40146484 28.94101562 21.35957031 27.81953125 21.31640625 26.6640625 C21.27974854 25.62717285 21.24309082 24.5902832 21.20532227 23.52197266 C21.15835777 21.00574834 21.15835777 21.00574834 20 19 C16.94883187 17.95388521 15.0042146 17.99925625 11.8125 18.5625 C8.82253449 19.72703855 8.82253449 19.72703855 7.86328125 22.44140625 C6.73398321 27.09656694 6.53845694 31.6006952 6.375 36.375 C6.33632813 37.30183594 6.29765625 38.22867188 6.2578125 39.18359375 C6.16412409 41.4555377 6.07840652 43.72748596 6 46 C4.33388095 46.042721 2.66617115 46.04063832 1 46 C0 45 0 45 -0.12025452 43.17137146 C-0.11803391 42.37417191 -0.11581329 41.57697235 -0.11352539 40.75561523 C-0.11344986 39.85475693 -0.11337433 38.95389862 -0.11329651 38.02574158 C-0.10813522 37.04658279 -0.10297394 36.06742401 -0.09765625 35.05859375 C-0.0962413 34.06118668 -0.09482635 33.0637796 -0.09336853 32.03614807 C-0.08775114 28.83656876 -0.07519571 25.63705831 -0.0625 22.4375 C-0.05748724 20.27408955 -0.05292395 18.11067801 -0.04882812 15.94726562 C-0.03777607 10.63148675 -0.02102104 5.31574829 0 0 Z " fill="#F9BA00" transform="translate(396,332)"/>
<path d="M0 0 C5.23467823 5.35641494 4.6875 7.87853224 4.6875 15.75 C-5.7075 16.245 -5.7075 16.245 -16.3125 16.75 C-15.3225 19.06 -14.3325 21.37 -13.3125 23.75 C-7.67707579 25.62847474 -2.0831379 24.69214496 3.6875 23.75 C3.6875 25.4 3.6875 27.05 3.6875 28.75 C-2.14116435 31.3802637 -8.23891215 31.93096675 -14.44140625 30.1328125 C-18.67887341 28.06441601 -20.84873036 25.15251321 -22.65625 20.9609375 C-24.22501388 15.67569729 -23.75571313 11.22737711 -22.1875 6 C-19.70426503 1.69572604 -16.99855317 -1.03694373 -12.375 -3.125 C-7.61454665 -3.41351232 -3.80380437 -2.95748115 0 0 Z M-15.3125 4.75 C-15.6425 6.73 -15.9725 8.71 -16.3125 10.75 C-11.3625 10.75 -6.4125 10.75 -1.3125 10.75 C-2.44852195 4.0863539 -2.44852195 4.0863539 -5.25 2.3125 C-9.55160248 1.13933569 -11.8901502 2.0481449 -15.3125 4.75 Z " fill="#F7B900" transform="translate(240.3125,347.25)"/>
<path d="M0 0 C3.06693601 2.32664111 4.26031212 4.88257728 5.8125 8.375 C5.8125 11.345 5.8125 14.315 5.8125 17.375 C-1.1175 17.375 -8.0475 17.375 -15.1875 17.375 C-14.1975 20.015 -13.2075 22.655 -12.1875 25.375 C-6.60365387 27.23628204 -0.87602856 26.51270571 4.8125 25.375 C4.8125 27.025 4.8125 28.675 4.8125 30.375 C-0.99219564 32.99444749 -7.19957877 33.64192082 -13.3515625 31.6875 C-17.69413881 29.47001423 -19.62051787 26.90183726 -21.1875 22.375 C-22.66105107 15.34729488 -22.23658209 9.79013682 -18.5 3.5625 C-12.64694 -1.97417837 -7.42148773 -2.12042507 0 0 Z M-13.1875 5.375 C-15.55730013 8.32877498 -15.55730013 8.32877498 -15.1875 12.375 C-10.2375 12.375 -5.2875 12.375 -0.1875 12.375 C-0.47470071 6.50573175 -0.47470071 6.50573175 -3.5625 4.5 C-7.46467978 2.82763724 -9.6611234 3.21367241 -13.1875 5.375 Z " fill="#F8B900" transform="translate(191.1875,345.625)"/>
<path d="M0 0 C3.7275089 5.39846117 3 7.74381212 3 15 C-3.6 15 -10.2 15 -17 15 C-16.5821401 20.62243117 -16.5821401 20.62243117 -14.4375 22.875 C-9.2844456 25.2533328 -3.39750369 24.07950074 2 23 C2 24.65 2 26.3 2 28 C-3.37095818 30.42810044 -8.18041458 30.68465711 -14 30 C-18.87010775 27.69776725 -21.7638768 24.9022701 -24 20 C-24.75442492 13.34580266 -25.15306084 6.58515079 -21 1 C-14.68391142 -4.9921866 -7.09720516 -5.71719304 0 0 Z M-16 3 C-17.69066658 5.6205332 -18 6.82629722 -18 10 C-13.05 10 -8.1 10 -3 10 C-3.28720071 4.13073175 -3.28720071 4.13073175 -6.375 2.125 C-10.23846169 0.46923071 -12.5339588 0.76384439 -16 3 Z " fill="#F8B900" transform="translate(318,348)"/>
<path d="M0 0 C2.38312703 1.89428046 3.6500559 3.30011179 5 6 C5.08527628 8.03232634 5.10716135 10.06747006 5.09765625 12.1015625 C5.09443359 13.31328125 5.09121094 14.525 5.08789062 15.7734375 C5.07951172 17.04445313 5.07113281 18.31546875 5.0625 19.625 C5.05798828 20.90375 5.05347656 22.1825 5.04882812 23.5 C5.03701203 26.66671292 5.02053815 29.83333356 5 33 C3.68 33 2.36 33 1 33 C0.34 32.01 -0.32 31.02 -1 30 C-1.639375 30.495 -2.27875 30.99 -2.9375 31.5 C-7.0359398 33.50739908 -10.50981588 33.75649841 -15 33 C-17.87029869 31.20606332 -19.49131638 30.01736724 -21 27 C-21.38112297 22.96009652 -21.4240682 20.70678033 -19.3125 17.1875 C-15.13512914 13.23593297 -11.31535149 12.75131096 -5.6875 12.875 C-4.61886719 12.89304687 -3.55023438 12.91109375 -2.44921875 12.9296875 C-1.64097656 12.95289063 -0.83273437 12.97609375 0 13 C-0.66 10.36 -1.32 7.72 -2 5 C-3.58367747 5.14204741 -5.16693318 5.28880153 -6.75 5.4375 C-7.63171875 5.51871094 -8.5134375 5.59992188 -9.421875 5.68359375 C-11.69350452 5.96238465 -13.79851823 6.38790577 -16 7 C-16.66 5.35 -17.32 3.7 -18 2 C-11.60535224 -0.31937019 -6.68561888 -1.72903936 0 0 Z M-14 19 C-14.67673447 22.40320934 -14.67673447 22.40320934 -15 26 C-13.01040592 28.41339891 -13.01040592 28.41339891 -9.125 28.375 C-6.14680696 28.28294676 -5.10377314 28.06485821 -2.5 26.4375 C-0.49521219 23.17971981 -0.71137141 20.75217167 -1 17 C-5.82360189 16.80705592 -9.49646738 17.24252386 -14 19 Z " fill="#F7B900" transform="translate(347,345)"/>
<path d="M0 0 C10.89 0 21.78 0 33 0 C33 1.98 33 3.96 33 6 C28.71 6 24.42 6 20 6 C20 18.54 20 31.08 20 44 C17.69 44 15.38 44 13 44 C13 31.46 13 18.92 13 6 C8.71 6 4.42 6 0 6 C0 4.02 0 2.04 0 0 Z " fill="#FABA00" transform="translate(138,334)"/>
<path d="M0 0 C0.66 0 1.32 0 2 0 C3.65 5.61 5.3 11.22 7 17 C8.65 15.68 10.3 14.36 12 13 C12.99 13.495 12.99 13.495 14 14 C13.04956626 15.33897583 12.08940853 16.67105427 11.125 18 C10.59132813 18.7425 10.05765625 19.485 9.5078125 20.25 C9.01023437 20.8275 8.51265625 21.405 8 22 C7.34 22 6.68 22 6 22 C4.68 18.37 3.36 14.74 2 11 C1.01 19.58 0.02 28.16 -1 37 C-1.66 37 -2.32 37 -3 37 C-3.67126129 34.5636811 -4.33716354 32.12611117 -5 29.6875 C-5.19078125 28.99720703 -5.3815625 28.30691406 -5.578125 27.59570312 C-6.37716184 24.64212051 -7 22.07440781 -7 19 C-33.07 19 -59.14 19 -86 19 C-86 18.01 -86 17.02 -86 16 C-59.6 16 -33.2 16 -6 16 C-5.01 18.64 -4.02 21.28 -3 24 C-2.01 16.08 -1.02 8.16 0 0 Z " fill="#6F6F6E" transform="translate(86,343)"/>
<path d="M0 0 C0.66 0 1.32 0 2 0 C2.08302368 0.88522339 2.08302368 0.88522339 2.16772461 1.78833008 C2.42067687 4.46341208 2.679027 7.13794603 2.9375 9.8125 C3.02451172 10.74126953 3.11152344 11.67003906 3.20117188 12.62695312 C3.28818359 13.51962891 3.37519531 14.41230469 3.46484375 15.33203125 C3.543396 16.15421143 3.62194824 16.9763916 3.70288086 17.82348633 C3.95551045 20.17487422 3.95551045 20.17487422 5 23 C5.99 19.535 5.99 19.535 7 16 C25.48 16 43.96 16 63 16 C63 16.99 63 17.98 63 19 C45.51 19 28.02 19 10 19 C7.19496245 27.92277777 7.19496245 27.92277777 5 37 C4.34 37 3.68 37 3 37 C2.91435791 36.34402832 2.82871582 35.68805664 2.74047852 35.01220703 C2.35153499 32.049303 1.95708727 29.08715747 1.5625 26.125 C1.42779297 25.09246094 1.29308594 24.05992187 1.15429688 22.99609375 C1.02216797 22.00996094 0.89003906 21.02382813 0.75390625 20.0078125 C0.63345947 19.09660645 0.5130127 18.18540039 0.38891602 17.24658203 C0.10637049 14.97266576 0.10637049 14.97266576 -1 13 C-1.99 15.97 -2.98 18.94 -4 22 C-7.34998521 20.88333826 -7.79340222 20.25305075 -9.6875 17.4375 C-10.34298828 16.47650391 -10.34298828 16.47650391 -11.01171875 15.49609375 C-11.33785156 15.00238281 -11.66398437 14.50867188 -12 14 C-9 14 -9 14 -7.3125 15.5 C-6.879375 15.995 -6.44625 16.49 -6 17 C-3.85289032 11.37661751 -1.86763181 5.72210596 0 0 Z " fill="#6D6D6C" transform="translate(437,343)"/>
<path d="M0 0 C1.32 0 2.64 0 4 0 C4 2.31 4 4.62 4 7 C6.97 7 9.94 7 13 7 C13 8.65 13 10.3 13 12 C10.03 12 7.06 12 4 12 C4.13818532 15.47951523 4.28682601 18.95850495 4.4375 22.4375 C4.47681641 23.43072266 4.51613281 24.42394531 4.55664062 25.44726562 C4.61948242 26.86362305 4.61948242 26.86362305 4.68359375 28.30859375 C4.72025146 29.18314209 4.75690918 30.05769043 4.79467773 30.95874023 C4.78181066 32.9927402 4.78181066 32.9927402 6 34 C8.32817964 34.36760731 10.6618385 34.70241581 13 35 C12.67 36.65 12.34 38.3 12 40 C4.76813075 40.49029622 4.76813075 40.49029622 1.0625 38.125 C-2.00159753 34.96805103 -2.12230368 33.28083952 -2.09765625 28.9921875 C-2.09282227 27.51298828 -2.09282227 27.51298828 -2.08789062 26.00390625 C-2.07951172 24.97136719 -2.07113281 23.93882812 -2.0625 22.875 C-2.05798828 21.83472656 -2.05347656 20.79445313 -2.04882812 19.72265625 C-2.03701952 17.14838038 -2.02055075 14.57421854 -2 12 C-3.32 12 -4.64 12 -6 12 C-6 10.68 -6 9.36 -6 8 C-5.38125 7.79375 -4.7625 7.5875 -4.125 7.375 C-1.15346355 5.45224112 -0.86975341 3.33405473 0 0 Z " fill="#FABA00" transform="translate(378,338)"/>
<path d="M0 0 C1.98 0 3.96 0 6 0 C6 15.18 6 30.36 6 46 C4.02 46 2.04 46 0 46 C0 30.82 0 15.64 0 0 Z " fill="#FABA00" transform="translate(361,332)"/>
<path d="M0 0 C1.98 0 3.96 0 6 0 C6 15.18 6 30.36 6 46 C4.02 46 2.04 46 0 46 C0 30.82 0 15.64 0 0 Z " fill="#FABA00" transform="translate(204,332)"/>
<path d="M0 0 C0.66 0.33 1.32 0.66 2 1 C0.71480435 3.86697492 -0.57129254 5.97607712 -3 8 C-3.66 8 -4.32 8 -5 8 C-5 6.35 -5 4.7 -5 3 C-4.360625 2.87625 -3.72125 2.7525 -3.0625 2.625 C-2.0415625 2.315625 -2.0415625 2.315625 -1 2 C-0.67 1.34 -0.34 0.68 0 0 Z " fill="#DAAE04" transform="translate(208,104)"/>
<path d="M0 0 C0.66 0 1.32 0 2 0 C2.66 2.64 3.32 5.28 4 8 C2.35 7.67 0.7 7.34 -1 7 C-0.67 4.69 -0.34 2.38 0 0 Z " fill="#5F5F5E" transform="translate(86,343)"/>
<path d="M0 0 C0.33 0.66 0.66 1.32 1 2 C0.34 2 -0.32 2 -1 2 C-1.33 4.31 -1.66 6.62 -2 9 C-2.66 8.67 -3.32 8.34 -4 8 C-3.40138258 5.64828869 -2.73075648 3.3140622 -2 1 C-1.34 0.67 -0.68 0.34 0 0 Z " fill="#70706E" transform="translate(437,349)"/>
</svg>
