<?xml version="1.0" encoding="UTF-8"?>
<svg version="1.1" xmlns="http://www.w3.org/2000/svg" width="690" height="581">
<path d="M0 0 C70.62 0 141.24 0 214 0 C214 37.62 214 75.24 214 114 C203.44 114 192.88 114 182 114 C182 141.06 182 168.12 182 196 C220.28 196 258.56 196 298 196 C298 168.94 298 141.88 298 114 C287.44 114 276.88 114 266 114 C266 76.38 266 38.76 266 0 C336.62 0 407.24 0 480 0 C480 37.62 480 75.24 480 114 C469.11 114 458.22 114 447 114 C447 141.06 447 168.12 447 196 C501.45 196 555.9 196 612 196 C612 233.62 612 271.24 612 310 C600.78 310 589.56 310 578 310 C578 361.81 578 413.62 578 467 C589.22 467 600.44 467 612 467 C612 504.62 612 542.24 612 581 C541.38 581 470.76 581 398 581 C398 543.71 398 506.42 398 468 C408.56 468 419.12 468 430 468 C430 461.4 430 454.8 430 448 C392.05 448 354.1 448 315 448 C315 454.6 315 461.2 315 468 C325.89 468 336.78 468 348 468 C348 505.29 348 542.58 348 581 C277.05 581 206.1 581 133 581 C133 543.71 133 506.42 133 468 C144.22 468 155.44 468 167 468 C167 438.3 167 408.6 167 378 C144.83101687 378.43419941 144.83101687 378.43419941 122.66503906 378.9909668 C118.33935547 379.04064941 118.33935547 379.04064941 116.30267334 379.04988098 C114.90530653 379.06657611 113.50808035 379.10485735 112.11175537 379.16133118 C104.64451455 379.44776297 98.60850077 379.19635004 92.77427292 374.14378834 C90.39478938 371.85849892 88.19729804 369.46198795 86 367 C84.86775205 365.92795103 83.72281843 364.86877076 82.5546875 363.8359375 C81.67039062 363.02382813 80.78609375 362.21171875 79.875 361.375 C76.288728 358.08401979 72.68656352 354.81186228 69.0625 351.5625 C65.17629146 348.07551673 61.33167648 344.5465699 57.5 341 C48.71998696 332.46952658 48.71998696 332.46952658 39.26259559 324.77952516 C34.39763671 321.17447007 34.39763671 321.17447007 33.35550225 318.09639478 C33.11881648 315.85671259 33.09966581 313.70945521 33.15821838 311.45791626 C33.15223741 310.61157792 33.14625644 309.76523959 33.14009422 308.89325464 C33.12858514 306.06400341 33.16702062 303.23767368 33.20532227 300.40869141 C33.20729725 298.37827625 33.20618755 296.3478561 33.20222473 294.31744385 C33.2002161 288.80927209 33.2413736 283.30216713 33.29024243 277.79424334 C33.33399851 272.03674254 33.33811333 266.27921734 33.34642029 260.52157593 C33.36817799 249.6205051 33.42562284 238.71992562 33.49586672 227.81907117 C33.57410567 215.4081131 33.61259564 202.99713157 33.64773476 190.58598828 C33.72090492 165.05704386 33.84544131 139.52857018 34 114 C22.78 114 11.56 114 0 114 C0 76.38 0 38.76 0 0 Z " fill="#FEF8F8" transform="translate(0,0)"/>
<path d="M0 0 C49.83 0 99.66 0 151 0 C151 16.83 151 33.66 151 51 C140.44 51 129.88 51 119 51 C119 78.06 119 105.12 119 133 C177.74 133 236.48 133 297 133 C297 105.94 297 78.88 297 51 C286.44 51 275.88 51 265 51 C265 34.5 265 18 265 1 C314.5 1 364 1 415 1 C415 17.5 415 34 415 51 C403.78 51 392.56 51 381 51 C381 123.93 381 196.86 381 272 C392.22 272 403.44 272 415 272 C415 288.5 415 305 415 322 C365.5 322 316 322 265 322 C265 305.5 265 289 265 272 C275.89 272 286.78 272 298 272 C298 244.28 298 216.56 298 188 C238.93 188 179.86 188 119 188 C119 215.72 119 243.44 119 272 C129.23 272 139.46 272 150 272 C150 288.5 150 305 150 322 C100.5 322 51 322 0 322 C0 305.5 0 289 0 272 C11.55 272 23.1 272 35 272 C35 199.07 35 126.14 35 51 C23.45 51 11.9 51 0 51 C0 34.17 0 17.34 0 0 Z " fill="#E61D3B" transform="translate(165,228)"/>
<path d="M0 0 C70.62 0 141.24 0 214 0 C214 37.62 214 75.24 214 114 C203.44 114 192.88 114 182 114 C182 141.06 182 168.12 182 196 C220.28 196 258.56 196 298 196 C298 168.94 298 141.88 298 114 C287.44 114 276.88 114 266 114 C266 76.38 266 38.76 266 0 C336.62 0 407.24 0 480 0 C480 37.62 480 75.24 480 114 C469.11 114 458.22 114 447 114 C447 141.06 447 168.12 447 196 C501.45 196 555.9 196 612 196 C612 233.62 612 271.24 612 310 C600.78 310 589.56 310 578 310 C578 361.81 578 413.62 578 467 C589.22 467 600.44 467 612 467 C612 504.62 612 542.24 612 581 C541.38 581 470.76 581 398 581 C398 543.71 398 506.42 398 468 C408.56 468 419.12 468 430 468 C430 461.4 430 454.8 430 448 C392.05 448 354.1 448 315 448 C315 454.6 315 461.2 315 468 C325.89 468 336.78 468 348 468 C348 505.29 348 542.58 348 581 C277.05 581 206.1 581 133 581 C133 543.71 133 506.42 133 468 C144.22 468 155.44 468 167 468 C167 438.3 167 408.6 167 378 C144.83101687 378.43419941 144.83101687 378.43419941 122.66503906 378.9909668 C118.33935547 379.04064941 118.33935547 379.04064941 116.30267334 379.04988098 C114.90530653 379.06657611 113.50808035 379.10485735 112.11175537 379.16133118 C104.64451455 379.44776297 98.60850077 379.19635004 92.77427292 374.14378834 C90.39478938 371.85849892 88.19729804 369.46198795 86 367 C84.86775205 365.92795103 83.72281843 364.86877076 82.5546875 363.8359375 C81.67039062 363.02382813 80.78609375 362.21171875 79.875 361.375 C76.288728 358.08401979 72.68656352 354.81186228 69.0625 351.5625 C65.17629146 348.07551673 61.33167648 344.5465699 57.5 341 C48.71998696 332.46952658 48.71998696 332.46952658 39.26259559 324.77952516 C34.39763671 321.17447007 34.39763671 321.17447007 33.35550225 318.09639478 C33.11881648 315.85671259 33.09966581 313.70945521 33.15821838 311.45791626 C33.15223741 310.61157792 33.14625644 309.76523959 33.14009422 308.89325464 C33.12858514 306.06400341 33.16702062 303.23767368 33.20532227 300.40869141 C33.20729725 298.37827625 33.20618755 296.3478561 33.20222473 294.31744385 C33.2002161 288.80927209 33.2413736 283.30216713 33.29024243 277.79424334 C33.33399851 272.03674254 33.33811333 266.27921734 33.34642029 260.52157593 C33.36817799 249.6205051 33.42562284 238.71992562 33.49586672 227.81907117 C33.57410567 215.4081131 33.61259564 202.99713157 33.64773476 190.58598828 C33.72090492 165.05704386 33.84544131 139.52857018 34 114 C22.78 114 11.56 114 0 114 C0 76.38 0 38.76 0 0 Z M16 16 C16 43.06 16 70.12 16 98 C27.22 98 38.44 98 50 98 C49.96335991 102.02911842 49.96335991 102.02911842 49.92597961 106.13963318 C49.7012202 131.43367414 49.53750779 156.72758348 49.43006611 182.02239895 C49.37335796 195.02729667 49.29605314 208.03146143 49.17016602 221.03588867 C49.06048794 232.37129251 48.9895507 243.70616553 48.96502656 255.04208523 C48.95069156 261.04409537 48.91703351 267.04458702 48.83696938 273.04611015 C48.76218532 278.69774404 48.739295 284.34723739 48.75581551 289.99931908 C48.75279438 292.07101842 48.73097819 294.14279082 48.68873978 296.21406174 C47.98399774 307.42326845 47.98399774 307.42326845 52.42406273 317.18522835 C55.18178284 319.46360343 57.8919321 321.24525328 61 323 C62.74744129 324.44492245 62.74744129 324.44492245 64.09375 325.75 C69.33693076 330.65271448 74.72693308 335.27471305 80.3125 339.78125 C83.7231025 342.59697997 86.98080356 345.55904562 90.22265625 348.56640625 C91.13917969 349.36949219 92.05570312 350.17257812 93 351 C93.59448441 351.64686264 94.18896881 352.29372528 94.8014679 352.96018982 C101.63267838 359.60361404 107.50211254 359.98360577 116.55053711 359.90527344 C118.26548783 359.86500792 119.98041388 359.82367644 121.6953125 359.78125 C123.29351568 359.76946489 124.89174989 359.76131754 126.48999023 359.75683594 C132.36880247 359.71515621 138.24695054 359.60346502 144.125 359.5 C157.28375 359.335 170.4425 359.17 184 359 C184 400.58 184 442.16 184 485 C172.78 485 161.56 485 150 485 C150 511.4 150 537.8 150 565 C209.73 565 269.46 565 331 565 C331 538.6 331 512.2 331 485 C320.44 485 309.88 485 299 485 C299 467.18 299 449.36 299 431 C347.51 431 396.02 431 446 431 C446 448.49 446 465.98 446 484 C435.44 484 424.88 484 414 484 C414 511.06 414 538.12 414 566 C474.06 566 534.12 566 596 566 C596 538.94 596 511.88 596 484 C584.45 484 572.9 484 561 484 C561 421.3 561 358.6 561 294 C572.22 294 583.44 294 595 294 C595 267.27 595 240.54 595 213 C540.55 213 486.1 213 430 213 C430 175.05 430 137.1 430 98 C441.55 98 453.1 98 465 98 C465 70.94 465 43.88 465 16 C404.94 16 344.88 16 283 16 C283 43.06 283 70.12 283 98 C293.56 98 304.12 98 315 98 C315 135.95 315 173.9 315 213 C265.5 213 216 213 165 213 C165 175.05 165 137.1 165 98 C175.89 98 186.78 98 198 98 C198 70.94 198 43.88 198 16 C137.94 16 77.88 16 16 16 Z " fill="#E61F3C" transform="translate(0,0)"/>
<path d="M0 0 C49.5 0 99 0 150 0 C150 17.16 150 34.32 150 52 C138.78 52 127.56 52 116 52 C116.02886795 54.78186234 116.0577359 57.56372467 116.08747864 60.42988586 C116.35319406 86.63563008 116.54662332 112.84119662 116.67355824 139.04798603 C116.68681594 141.7316177 116.70035311 144.41524781 116.71411133 147.09887695 C116.71922638 148.09939539 116.71922638 148.09939539 116.72444477 149.12012633 C116.78093867 159.90580821 116.8833947 170.6905849 117.00298635 181.47573064 C117.12476621 192.55098966 117.19583491 203.62575062 117.22315043 214.7016446 C117.24008066 220.91969305 117.27978235 227.13569204 117.37449074 233.35308266 C117.46298381 239.21011265 117.48990316 245.06425714 117.47039986 250.92189217 C117.47396547 253.0669704 117.49968513 255.21214878 117.54967117 257.35664749 C117.92682715 274.37764939 117.92682715 274.37764939 113.19782066 279.63121605 C110.05523211 282.53476708 106.62394476 284.73939443 103 287 C101.16720411 288.45394274 99.35066363 289.92900369 97.5625 291.4375 C96.23798828 292.51451172 96.23798828 292.51451172 94.88671875 293.61328125 C90.94253035 296.87430847 87.06822315 300.21464896 83.20922852 303.57592773 C82.11941984 304.51907778 81.01839397 305.44944322 79.90582275 306.3656311 C77.97417757 307.97182815 77.97417757 307.97182815 76.25334167 309.79942322 C69.24756472 316.38174926 61.85410958 315.90819613 52.80859375 315.68359375 C51.25206238 315.67051544 49.69550193 315.66056183 48.13893127 315.65357971 C44.06935118 315.62702825 40.00155866 315.55842411 35.93267822 315.48065186 C31.03617032 315.39597117 26.13905997 315.36422889 21.24202728 315.3234787 C13.82678026 315.25591305 6.41544433 315.12169132 -1 315 C-1 297.84 -1 280.68 -1 263 C9.56 263 20.12 263 31 263 C31 193.04 31 123.08 31 51 C20.77 51 10.54 51 0 51 C0 34.17 0 17.34 0 0 Z " fill="#E61D3B" transform="translate(299,31)"/>
<path d="M0 0 C50.16 0 100.32 0 152 0 C152 17.16 152 34.32 152 52 C141.11 52 130.22 52 119 52 C119 121.63 119 191.26 119 263 C130.22 263 141.44 263 153 263 C153 280.16 153 297.32 153 315 C135.59277675 315.48130571 135.59277675 315.48130571 128.08984375 315.5859375 C122.99763258 315.65729099 117.90804454 315.74105043 112.81787109 315.90527344 C108.7067546 316.03705739 104.59845356 316.10768666 100.48538589 316.13852692 C98.9279157 316.16045863 97.37057514 316.20328639 95.81432724 316.26876068 C86.34181294 316.65091021 80.41446893 315.60571837 73.18994141 309.15136719 C71.54811213 307.59776547 69.94777819 306.01832935 68.37302399 304.39690876 C66.62423403 302.6176973 64.75581015 301.00686222 62.84375 299.40625 C61.72893903 298.43776197 60.61434843 297.4690202 59.5 296.5 C54.42356648 292.09616026 49.34347656 287.69662328 44.25 283.3125 C43.66541016 282.8071875 43.08082031 282.301875 42.47851562 281.78125 C40.05168217 279.69618362 37.66627537 277.77751691 35 276 C34.70589476 273.01675968 34.60910113 270.24116346 34.63923645 267.25558472 C34.63667318 266.33916014 34.6341099 265.42273556 34.63146895 264.47854054 C34.62650353 261.3890012 34.64306937 258.29994399 34.65942383 255.21044922 C34.6602695 253.00328584 34.65979612 250.79612162 34.65809631 248.58895874 C34.65723262 242.58093102 34.67491892 236.57308157 34.69581819 230.56509542 C34.7145227 224.29235828 34.7163305 218.01961742 34.71989441 211.74685669 C34.72817098 201.21320555 34.74693255 190.67961311 34.77368164 180.14599609 C34.80120785 169.29508798 34.82244845 158.44419768 34.83520508 147.59326172 C34.83599325 146.92470016 34.83678142 146.25613859 34.83759347 145.56731759 C34.84150851 142.21342701 34.84529965 138.8595363 34.84902918 135.50564551 C34.88041978 107.67038304 34.93381743 79.8351996 35 52 C23.45 52 11.9 52 0 52 C0 34.84 0 17.68 0 0 Z " fill="#E61E3C" transform="translate(31,31)"/>
<path d="M0 0 C0 14.19 0 28.38 0 43 C-15.84 43 -31.68 43 -48 43 C-42.4124847 36.29498164 -42.4124847 36.29498164 -39.4375 33.8125 C-35.88579478 30.78448667 -32.42961502 27.66485024 -29 24.5 C-25.04996646 20.86282825 -21.06669776 17.27324869 -17.0078125 13.7578125 C-13.7305255 10.88859236 -10.51704571 7.94864673 -7.296875 5.015625 C-1.58139535 0 -1.58139535 0 0 0 Z " fill="#E61E3C" transform="translate(445,302)"/>
<path d="M0 0 C3.96 0 7.92 0 12 0 C13.32 2.64 14.64 5.28 16 8 C18.07114674 5.36399506 19.47524303 3.04951395 21 0 C24.96 0 28.92 0 33 0 C33 8.25 33 16.5 33 25 C30.36 25 27.72 25 25 25 C24.505 18.565 24.505 18.565 24 12 C22.68 14.97 21.36 17.94 20 21 C16.75 21 16.75 21 13 20 C11.1166535 17.43278705 10.18941582 14.99732786 9 12 C8.67 16.29 8.34 20.58 8 25 C5.36 25 2.72 25 0 25 C0 16.75 0 8.5 0 0 Z " fill="#E51C3A" transform="translate(657,556)"/>
<path d="M0 0 C7.26 0 14.52 0 22 0 C22 2.31 22 4.62 22 7 C19.69 7 17.38 7 15 7 C15 12.94 15 18.88 15 25 C12.36 25 9.72 25 7 25 C7 19.06 7 13.12 7 7 C4.69 7 2.38 7 0 7 C0 4.69 0 2.38 0 0 Z " fill="#E51D3B" transform="translate(632,556)"/>
</svg>
